# xmcd
#
# Track frame offsets: 
#        150
#        25002
#        36213
#        50102
#        64572
#        73439
#        87248
#        102986
#        116526
#        136786
#        161950
#        179018
#        201645
#        217206
#        236649
#        259169
#        276310
#        294349
#        303544
#        319548
#
# Disc length: 4455 seconds
#
# Revision: 0
# Processed by: cddbd v1.5.2PL0 Copyright (c) Steve Scherf et al.
# Submitted via: ExactAudioCopyFreeDBPlugin 1.0
#
DISCID=40116514
DTITLE=Dimitri van Toren - Liedjes om te koesteren disk 2
DYEAR=2017
DGENRE=Nederlands
TTITLE0=Naar een hoorbaar goedemorgen
TTITLE1=Ik weet nog steeds niet wie je bent
TTITLE2=Met jou wonderland muziek
TTITLE3=Zolang
TTITLE4=Zullen we dansen of hard weglopen
TTITLE5=Papa geef mij dat paard
TTITLE6=Daarop drink ik nog een glas met jou
TTITLE7='s Morgens zou ik kunnen sterven
TTITLE8=Willy's laatste dans
TTITLE9=Hé kapitein ik wil naar zee
TTITLE10=Want er zijn geen wolven in het bos
TTITLE11=Sluit dan de blinden voor je ramen
TTITLE12=Lied voor na de afwas
TTITLE13=Weet je nog mijn kleine vogel
TTITLE14=Merlina welkom thuis
TTITLE15=De elastiekjesman
TTITLE16=De droom van Josef
TTITLE17=Alles komt en keert weer om
TTITLE18=Een vrolijk lied is hier niet gewenst
TTITLE19=Je bent de mooiste
EXTD=
EXTT0=
EXTT1=
EXTT2=
EXTT3=
EXTT4=
EXTT5=
EXTT6=
EXTT7=
EXTT8=
EXTT9=
EXTT10=
EXTT11=
EXTT12=
EXTT13=
EXTT14=
EXTT15=
EXTT16=
EXTT17=
EXTT18=
EXTT19=
PLAYORDER=
